<?xml version="1.0" encoding="utf-8"?>
<!-- Generator: Adobe Illustrator 23.0.3, SVG Export Plug-In . SVG Version: 6.00 Build 0)  -->
<svg version="1.1" id="Icons" xmlns="http://www.w3.org/2000/svg" xmlns:xlink="http://www.w3.org/1999/xlink" x="0px" y="0px"
	 viewBox="0 0 32 32" style="enable-background:new 0 0 32 32;" xml:space="preserve">
<style type="text/css">
	.st0{fill:none;stroke:#000000;stroke-width:2;stroke-linecap:round;stroke-linejoin:round;stroke-miterlimit:10;}
</style>
<path class="st0" d="M16,3C9.4,3,4,8.3,4,14.8v5.7c0,1.3,1.1,2.4,2.4,2.4h0C7.7,22.9,9,23.7,9,25v3c4.7,1.5,9.3,1.5,14,0v-3
	c0-1.3,1.3-2.1,2.6-2.1h0c1.3,0,2.4-1.1,2.4-2.4v-5.7C28,8.3,22.6,3,16,3z"/>
<polyline class="st0" points="17,23 16,21 15,23 "/>
<path class="st0" d="M12.1,20.7L10.9,21C9.4,21.2,8,20.1,8,18.6v-0.2c0-1.3,1.1-2.4,2.4-2.4h1.2c1.6,0,2.7,1.5,2.3,3l0,0
	C13.7,19.8,13,20.5,12.1,20.7z"/>
<path class="st0" d="M19.9,20.7l1.2,0.2c1.5,0.3,2.9-0.8,2.9-2.3v-0.2c0-1.3-1.1-2.4-2.4-2.4h-1.2c-1.6,0-2.7,1.5-2.3,3l0,0
	C18.3,19.8,19,20.5,19.9,20.7z"/>
</svg>
